<svg xmlns="http://www.w3.org/2000/svg" version="1.1" xmlns:xlink="http://www.w3.org/1999/xlink" width="200" height="200"><svg xmlns="http://www.w3.org/2000/svg" version="1.1" xmlns:xlink="http://www.w3.org/1999/xlink" width="200" height="200"><svg xmlns="http://www.w3.org/2000/svg" version="1.1" xmlns:xlink="http://www.w3.org/1999/xlink" viewBox="0 0 200 200"><rect width="200" height="200" fill="url('#gradient')"></rect><defs><linearGradient id="gradient" gradientTransform="rotate(45 0.5 0.5)"><stop offset="0%" stop-color="#ffffff"></stop><stop offset="100%" stop-color="#ffffff"></stop></linearGradient></defs><g><g fill="#3b82f6" transform="matrix(5.102990033222591,0,0,5.102990033222591,4.62370490314953,133.80828161968344)" stroke="#3b82f6" stroke-width="0.2"><path d="M5.51-16.66L5.51-14.26L4.36-14.26L4.36 1.02L5.51 1.02L5.51 3.41L1.05 3.41L1.05-16.66L5.51-16.66ZM14.04-3.78L14.04-3.78Q14.04-4.53 13.51-4.95Q12.98-5.37 11.64-5.82Q10.30-6.27 9.45-6.69L9.45-6.69Q6.69-8.05 6.69-10.42L6.69-10.42Q6.69-11.60 7.38-12.50Q8.07-13.41 9.33-13.91Q10.59-14.41 12.16-14.41L12.16-14.41Q13.69-14.41 14.91-13.87Q16.12-13.32 16.80-12.31Q17.47-11.30 17.47-10L17.47-10L14.05-10Q14.05-10.87 13.52-11.35Q12.99-11.83 12.08-11.83L12.08-11.83Q11.16-11.83 10.63-11.42Q10.10-11.02 10.10-10.39L10.10-10.39Q10.10-9.84 10.68-9.40Q11.27-8.96 12.74-8.48Q14.22-8.01 15.17-7.46L15.17-7.46Q17.47-6.13 17.47-3.80L17.47-3.80Q17.47-1.93 16.06-0.87Q14.66 0.20 12.21 0.20L12.21 0.20Q10.48 0.20 9.08-0.42Q7.68-1.04 6.97-2.12Q6.26-3.20 6.26-4.61L6.26-4.61L9.70-4.61Q9.70-3.47 10.29-2.92Q10.88-2.38 12.21-2.38L12.21-2.38Q13.06-2.38 13.55-2.75Q14.04-3.12 14.04-3.78ZM18.29-14.26L18.29-16.66L22.74-16.66L22.74 3.41L18.29 3.41L18.29 1.02L19.45 1.02L19.45-14.26L18.29-14.26ZM32.66 0L30.15-5.02L28.29-5.02L28.29 0L24.86 0L24.86-14.22L30.46-14.22Q32.99-14.22 34.41-13.10Q35.84-11.97 35.84-9.92L35.84-9.92Q35.84-8.44 35.24-7.46Q34.64-6.48 33.36-5.88L33.36-5.88L36.33-0.15L36.33 0L32.66 0ZM28.29-11.57L28.29-7.67L30.46-7.67Q31.44-7.67 31.93-8.18Q32.42-8.69 32.42-9.61Q32.42-10.53 31.92-11.05Q31.43-11.57 30.46-11.57L30.46-11.57L28.29-11.57Z"></path></g></g></svg></svg><style>@media (prefers-color-scheme: light) { :root { filter: none; } }
@media (prefers-color-scheme: dark) { :root { filter: none; } }
</style></svg>