<svg xmlns="http://www.w3.org/2000/svg" viewBox="0 0 200 200">
  <path fill="url('#a')" d="M0 0h200v200H0z" />
  <defs>
    <linearGradient id="a" gradientTransform="rotate(45 .5 .5)">
      <stop offset="0%" stop-color="#fff" />
      <stop offset="100%" stop-color="#fff" />
    </linearGradient>
  </defs>
  <path fill="#3b82f6" stroke="#3b82f6" stroke-width="1.0205980000000001"
    d="M32.741 48.792V61.04h-5.868v77.973h5.868v12.196H9.981V48.792zM76.27 114.52q0-3.827-2.705-5.97-2.704-2.144-9.542-4.44t-11.176-4.44q-14.084-6.94-14.084-19.034 0-6.021 3.52-10.614 3.522-4.644 9.952-7.195t14.441-2.552q7.808 0 14.033 2.756 6.175 2.806 9.645 7.96 3.419 5.154 3.419 11.788H76.32q0-4.44-2.705-6.889-2.704-2.45-7.348-2.45-4.695 0-7.4 2.093-2.704 2.041-2.704 5.256 0 2.807 2.96 5.052 3.01 2.245 10.512 4.695 7.552 2.398 12.4 5.205 11.737 6.787 11.737 18.677 0 9.543-7.195 14.952-7.144 5.46-19.647 5.46-8.828 0-15.972-3.164t-10.767-8.675q-3.624-5.511-3.624-12.707h17.555q0 5.818 3.01 8.625 3.011 2.755 9.798 2.755 4.338 0 6.838-1.888t2.5-5.256Zm21.687-53.48V48.793h22.709V151.21H97.957v-12.196h5.92V61.04zm73.33 72.77L158.48 108.19h-9.492v25.617h-17.503V61.244h28.577q12.91 0 20.157 5.715 7.297 5.766 7.297 16.228 0 7.552-3.062 12.553-3.062 5-9.594 8.063l15.156 29.24v.765zm-22.3-59.042v19.901h11.074q5 0 7.501-2.602 2.5-2.603 2.5-7.297 0-4.695-2.55-7.349-2.501-2.653-7.451-2.653z" />
</svg>